<?xml version="1.0" encoding="UTF-8"?>
<svg xmlns="http://www.w3.org/2000/svg" viewBox="0 0 940 820" font-family="Arial, Helvetica, sans-serif">
  <defs>
    <marker id="ex" markerWidth="8" markerHeight="8" refX="6" refY="3" orient="auto"><path d="M0,0 L6,3 L0,6 z" fill="#666"/></marker>
  </defs>
  <rect width="940" height="820" fill="#fafafa"/>
  <text x="470" y="34" text-anchor="middle" font-size="20" font-weight="bold">EXPLODED ASSEMBLY VIEW (stack order bottom ’ top)</text>

  <!-- Explosion axis -->
  <line x1="470" y1="70" x2="470" y2="780" stroke="#999" stroke-dasharray="5,5"/>

  <!-- 12 trough -->
  <rect x="270" y="720" width="400" height="50" fill="#eceff1" stroke="#546e7a" stroke-width="2" rx="4"/>
  <text x="680" y="750" font-size="12">12  trough</text>

  <!-- 13 stand -->
  <rect x="300" y="680" width="25" height="35" fill="#8d6e63"/><rect x="615" y="680" width="25" height="35" fill="#8d6e63"/>
  <text x="680" y="695" font-size="12">13  stand</text>

  <!-- 10 chute -->
  <rect x="430" y="620" width="40" height="55" fill="#fff9c4" stroke="#f9a825"/>
  <text x="680" y="650" font-size="12">10  chute</text>

  <!-- 5 lower housing -->
  <rect x="350" y="540" width="240" height="55" fill="#a5d6a7" stroke="#2e7d32" stroke-width="2"/>
  <text x="680" y="572" font-size="12">5  lower housing + Hall (22)</text>

  <!-- 7 wheel + 17 shaft + 26 magnet -->
  <ellipse cx="470" cy="510" rx="70" ry="22" fill="#fff" stroke="#2e7d32" stroke-width="2"/>
  <line x1="470" y1="488" x2="470" y2="460" stroke="#666" stroke-width="4"/>
  <text x="680" y="510" font-size="12">7, 17, 26  wheel/shaft/magnet</text>

  <!-- 6 gasket -->
  <ellipse cx="470" cy="455" rx="85" ry="8" fill="#fce4ec" stroke="#ad1457"/>
  <text x="680" y="458" font-size="12">6  gasket</text>

  <!-- 4 upper housing + 8 wiper + 9 cam -->
  <rect x="340" y="380" width="260" height="60" fill="#c8e6c9" stroke="#2e7d32" stroke-width="2"/>
  <text x="680" y="415" font-size="12">4  upper housing</text>
  <text x="680" y="432" font-size="11">8 wiper, 9 cam, 14 motor, 15 bracket</text>

  <!-- 11 throat ring -->
  <rect x="410" y="340" width="120" height="18" fill="#ffe0b2" stroke="#ef6c00"/>
  <text x="680" y="355" font-size="12">11  throat ring</text>

  <!-- 2 cone -->
  <polygon points="370,280 570,280 430,340 510,340" fill="#ffcc80" stroke="#ef6c00" stroke-width="2"/>
  <text x="680" y="310" font-size="12">2  cone insert</text>

  <!-- 1 hopper -->
  <rect x="330" y="120" width="280" height="140" fill="#bbdefb" stroke="#1565c0" stroke-width="2"/>
  <text x="680" y="190" font-size="12">1  hopper shell</text>

  <!-- 1a lid -->
  <ellipse cx="470" cy="95" rx="150" ry="18" fill="#90caf9" stroke="#1565c0" stroke-width="2"/>
  <text x="680" y="100" font-size="12">1a  lid</text>

  <!-- 27 electronics -->
  <rect x="120" y="400" width="100" height="70" fill="#fff" stroke="#333" stroke-dasharray="4,3"/>
  <text x="125" y="395" font-size="11">20,21,23,24,27</text>
  <text x="125" y="485" font-size="10">electronics bay</text>

  <!-- Assembly arrows -->
  <line x1="250" y1="750" x2="250" y2="130" stroke="#666" stroke-width="2" marker-end="url(#ex)"/>
  <text x="200" y="400" font-size="12" transform="rotate(-90 200 400)">assembly ‘</text>

  <!-- Fastener callouts -->
  <text x="60" y="560" font-size="12">Hoppercone: 6× M5 × 20</text>
  <text x="60" y="580" font-size="12">Housing split: 4× M4 × 25</text>
  <text x="60" y="600" font-size="12">Motor bracket: 2× M3 × 12</text>
  <text x="60" y="620" font-size="12">Conemeter: 4× M5 × 16</text>

  <!-- BOM reference -->
  <text x="60" y="660" font-size="13" font-weight="bold">See DESIGN.md §8 for full numbered BOM (items 128)</text>
</svg>
